<svg width="200" height="33" viewBox="0 0 200 33" fill="none" xmlns="http://www.w3.org/2000/svg">
<path d="M12.0423 33C9.65954 33 7.56111 32.3811 5.74699 31.1432C3.9464 29.9053 2.53842 28.0641 1.52305 25.6197C0.507684 23.1752 0 20.1432 0 16.5235C0 12.8882 0.500915 9.84829 1.50275 7.40385C2.51811 4.9594 3.93286 3.11823 5.74699 1.88034C7.56111 0.626781 9.65954 0 12.0423 0C15.481 0 18.1006 0.940171 19.9012 2.82051C21.7018 4.70085 22.7713 7.13746 23.1098 10.1303L16.2053 11.5171C15.8939 10.1695 15.3998 9.05698 14.7228 8.17949C14.0595 7.28632 13.1659 6.83974 12.0423 6.83974C11.0404 6.83974 10.1537 7.19231 9.38201 7.89744C8.62386 8.5869 8.03495 9.64459 7.61526 11.0705C7.19558 12.4964 6.98574 14.3141 6.98574 16.5235C6.98574 18.6859 7.20235 20.4801 7.63557 21.906C8.0688 23.3162 8.66448 24.3661 9.42262 25.0556C10.1943 25.745 11.0675 26.0897 12.0423 26.0897C13.4367 26.0897 14.4792 25.6667 15.1696 24.8205C15.8601 23.9587 16.2053 22.9167 16.2053 21.6944H23.0692C23.0692 24.1232 22.6427 26.1838 21.7898 27.8761C20.9504 29.5527 19.7117 30.8298 18.0736 31.7073C16.4354 32.5691 14.425 33 12.0423 33Z" fill="#9C04FF"/>
<path d="M36.9164 33C34.3306 33 32.0697 32.3732 30.1337 31.1197C28.2113 29.8504 26.7153 27.9858 25.6458 25.5256C24.5763 23.0499 24.0415 20.0021 24.0415 16.3825C24.0415 12.6688 24.5763 9.60541 25.6458 7.19231C26.7153 4.76353 28.2113 2.96154 30.1337 1.78633C32.0697 0.595442 34.3306 0 36.9164 0C39.5293 0 41.8037 0.618946 43.7396 1.85684C45.6892 3.09473 47.1987 4.92806 48.2682 7.35684C49.3377 9.78561 49.8725 12.7942 49.8725 16.3825C49.8725 20.0648 49.3377 23.1439 48.2682 25.6197C47.1987 28.0798 45.6892 29.9288 43.7396 31.1667C41.8037 32.3889 39.5293 33 36.9164 33ZM36.9164 26.2543C38.8117 26.2543 40.328 25.3925 41.4652 23.6688C42.6024 21.9295 43.171 19.485 43.171 16.3355C43.171 13.3739 42.6024 11.0392 41.4652 9.3312C40.328 7.60755 38.8117 6.74573 36.9164 6.74573C35.0752 6.74573 33.586 7.60755 32.4487 9.3312C31.3115 11.0392 30.7429 13.3896 30.7429 16.3825C30.7429 19.5007 31.3115 21.9295 32.4487 23.6688C33.586 25.3925 35.0752 26.2543 36.9164 26.2543Z" fill="#9C04FF"/>
<path d="M62.9577 33C60.575 33 58.4766 32.3811 56.6624 31.1432C54.8618 29.9053 53.4539 28.0641 52.4385 25.6197C51.4231 23.1752 50.9154 20.1432 50.9154 16.5235C50.9154 12.8882 51.4164 9.84829 52.4182 7.40385C53.4336 4.9594 54.8483 3.11823 56.6624 1.88034C58.4766 0.626781 60.575 0 62.9577 0C66.3964 0 69.0161 0.940171 70.8167 2.82051C72.6173 4.70085 73.6868 7.13746 74.0252 10.1303L67.1207 11.5171C66.8093 10.1695 66.3152 9.05698 65.6383 8.17949C64.9749 7.28632 64.0814 6.83974 62.9577 6.83974C61.9559 6.83974 61.0691 7.19231 60.2975 7.89744C59.5393 8.5869 58.9504 9.64459 58.5307 11.0705C58.111 12.4964 57.9012 14.3141 57.9012 16.5235C57.9012 18.6859 58.1178 20.4801 58.551 21.906C58.9842 23.3162 59.5799 24.3661 60.3381 25.0556C61.1097 25.745 61.983 26.0897 62.9577 26.0897C64.3522 26.0897 65.3946 25.6667 66.085 24.8205C66.7755 23.9587 67.1207 22.9167 67.1207 21.6944H73.9846C73.9846 24.1232 73.5582 26.1838 72.7053 27.8761C71.8659 29.5527 70.6271 30.8298 68.989 31.7073C67.3509 32.5691 65.3404 33 62.9577 33Z" fill="#9C04FF"/>
<path d="M87.9672 33C85.3814 33 83.1205 32.3732 81.1845 31.1197C79.2621 29.8504 77.7661 27.9858 76.6966 25.5256C75.6271 23.0499 75.0923 20.0021 75.0923 16.3825C75.0923 12.6688 75.6271 9.60541 76.6966 7.19231C77.7661 4.76353 79.2621 2.96154 81.1845 1.78633C83.1205 0.595442 85.3814 0 87.9672 0C90.5801 0 92.8545 0.618946 94.7905 1.85684C96.74 3.09473 98.2495 4.92806 99.319 7.35684C100.389 9.78561 100.923 12.7942 100.923 16.3825C100.923 20.0648 100.389 23.1439 99.319 25.6197C98.2495 28.0798 96.74 29.9288 94.7905 31.1667C92.8545 32.3889 90.5801 33 87.9672 33ZM87.9672 26.2543C89.8625 26.2543 91.3788 25.3925 92.516 23.6688C93.6533 21.9295 94.2219 19.485 94.2219 16.3355C94.2219 13.3739 93.6533 11.0392 92.516 9.3312C91.3788 7.60755 89.8625 6.74573 87.9672 6.74573C86.126 6.74573 84.6368 7.60755 83.4996 9.3312C82.3624 11.0392 81.7938 13.3896 81.7938 16.3825C81.7938 19.5007 82.3624 21.9295 83.4996 23.6688C84.6368 25.3925 86.126 26.2543 87.9672 26.2543Z" fill="#9C04FF"/>
<path d="M109.202 0.70513V25.6667H119.498V32.2479H102.704V0.70513H109.202Z" fill="#9C04FF"/>
<path d="M127.714 0.70513V25.6667H138.01V32.2479H121.216V0.70513H127.714Z" fill="#9C04FF"/>
<path d="M140.006 32.2479L149.185 0.70513H157.45L166.121 32.2479H159.277L157.795 26.7009H148.393L146.91 32.2479H140.006ZM150.037 21.1303H156.312L153.226 9.58974L150.037 21.1303Z" fill="#9C04FF"/>
<path d="M168.106 32.2479V0.70513H179.905C182.111 0.70513 183.939 1.0812 185.388 1.83333C186.836 2.5698 187.919 3.58048 188.637 4.86538C189.368 6.13461 189.733 7.57621 189.733 9.19017C189.733 10.9295 189.3 12.4024 188.434 13.609C187.581 14.8155 186.457 15.693 185.063 16.2415C185.997 16.5235 186.85 16.9544 187.621 17.5342C188.393 18.114 189.009 18.8818 189.469 19.8376C189.943 20.7778 190.18 21.9452 190.18 23.3397C190.18 24.2642 190.031 25.2436 189.733 26.2778C189.436 27.312 188.914 28.2835 188.17 29.1923C187.425 30.0855 186.389 30.8219 185.063 31.4017C183.736 31.9658 182.044 32.2479 179.986 32.2479H168.106ZM174.604 25.6667H179.783C180.879 25.6667 181.712 25.4316 182.281 24.9615C182.849 24.4758 183.133 23.7785 183.133 22.8697C183.133 21.9608 182.863 21.2322 182.321 20.6838C181.793 20.1353 180.947 19.8611 179.783 19.8611H174.604V25.6667ZM174.604 7.21581V13.2329H179.62C180.866 13.2329 181.753 12.9587 182.281 12.4103C182.809 11.8618 183.073 11.1489 183.073 10.2714C183.073 9.42521 182.809 8.70442 182.281 8.10897C181.766 7.51353 180.893 7.21581 179.661 7.21581H174.604Z" fill="#9C04FF"/>
<path d="M191.207 27.8761C191.207 26.4815 191.606 25.3219 192.405 24.3974C193.217 23.4729 194.267 23.0107 195.553 23.0107C196.839 23.0107 197.902 23.4729 198.741 24.3974C199.58 25.3219 200 26.4815 200 27.8761C200 29.2707 199.58 30.4224 198.741 31.3312C197.902 32.2244 196.839 32.6709 195.553 32.6709C194.267 32.6709 193.217 32.2165 192.405 31.3077C191.606 30.3989 191.207 29.255 191.207 27.8761Z" fill="#9C04FF"/>
</svg>
