<svg width="30" height="30" viewBox="0 0 30 30" fill="none" xmlns="http://www.w3.org/2000/svg">
<g clip-path="url(#clip0_111_129)">
<path d="M27.7761 10.1844C27.5299 10.2647 27.3956 10.5294 27.4759 10.7755C27.9195 12.1348 28.1445 13.5562 28.1445 15.0001C28.1445 18.6337 26.7295 22.0498 24.1601 24.6192C21.5907 27.1886 18.1746 28.6036 14.541 28.6036C10.9073 28.6036 7.49121 27.1886 4.92182 24.6192C2.35242 22.0498 0.9375 18.6337 0.9375 15C0.9375 11.3664 2.35248 7.95025 4.92188 5.38086C7.49127 2.81146 10.9074 1.39648 14.541 1.39648C16.4681 1.39648 18.3302 1.79105 20.0755 2.56936C21.7619 3.32135 23.2564 4.39209 24.5175 5.75188C24.6935 5.94166 24.9901 5.95291 25.18 5.77678C25.3698 5.60076 25.3809 5.30422 25.2049 5.11432C23.8573 3.66125 22.26 2.51697 20.4574 1.71312C18.591 0.880977 16.6005 0.458984 14.541 0.458984C10.657 0.458984 7.00541 1.97146 4.259 4.71799C1.51254 7.46439 0 11.116 0 15C0 18.884 1.51254 22.5356 4.259 25.282C7.00541 28.0285 10.657 29.541 14.541 29.541C18.4251 29.541 22.0767 28.0285 24.8231 25.282C27.5695 22.5356 29.0821 18.884 29.0821 15C29.0821 13.4571 28.8415 11.9379 28.3672 10.4846C28.2868 10.2385 28.0222 10.1042 27.7761 10.1844Z" fill="#9C04FF"/>
<path d="M29.588 4.87863C29.3225 4.61273 28.9691 4.46631 28.5931 4.46631C28.2171 4.46631 27.8637 4.61273 27.5983 4.87846L27.1787 5.29805C26.9957 5.48109 26.9957 5.77787 27.1787 5.96092C27.3618 6.14391 27.6586 6.14397 27.8416 5.96086L28.2614 5.54109C28.3499 5.4525 28.4677 5.40375 28.593 5.40375C28.7184 5.40375 28.8362 5.4525 28.9249 5.54133C29.0136 5.63004 29.0625 5.74781 29.0625 5.87314C29.0625 5.99848 29.0136 6.11625 28.9249 6.20496L12.7618 22.3682C12.6734 22.4568 12.5556 22.5055 12.4302 22.5055C12.3048 22.5055 12.187 22.4568 12.0983 22.3679L5.78596 16.0556C5.69725 15.9669 5.64838 15.8491 5.64838 15.7237C5.64838 15.5985 5.69725 15.4806 5.78613 15.3917C5.87461 15.3031 5.99238 15.2544 6.11777 15.2544C6.24316 15.2544 6.36094 15.3031 6.44965 15.3919L12.0987 21.041C12.1866 21.1289 12.3059 21.1783 12.4302 21.1783C12.5545 21.1783 12.6738 21.1289 12.7617 21.041L26.5223 7.28033C26.7055 7.09723 26.7055 6.80051 26.5223 6.6174C26.3393 6.43441 26.0425 6.43441 25.8595 6.6174L12.4302 20.0466L7.11281 14.7292C6.84721 14.4633 6.49389 14.3169 6.11789 14.3169C5.74189 14.3169 5.38852 14.4633 5.12309 14.729C4.8573 14.9948 4.71094 15.348 4.71094 15.7237C4.71094 16.0995 4.8573 16.4527 5.12309 16.7186L11.4353 23.0307C11.7008 23.2966 12.0542 23.4431 12.4302 23.4431C12.8062 23.4431 13.1596 23.2966 13.4249 23.031L29.5879 6.86801C29.8536 6.60223 30 6.24896 30 5.8732C30 5.49744 29.8536 5.14418 29.588 4.87863Z" fill="#9C04FF"/>
</g>
<defs>
<clipPath id="clip0_111_129">
<rect width="30" height="30" fill="white"/>
</clipPath>
</defs>
</svg>
