<svg width="40" height="40" viewBox="0 0 40 40" fill="none" xmlns="http://www.w3.org/2000/svg">
<path d="M32.3437 11.6211C32.7752 11.6211 33.125 11.2713 33.125 10.8398V2.34375C33.125 1.05141 32.0736 0 30.7812 0H2.34375C1.05141 0 0 1.05141 0 2.34375V37.6562C0 38.9486 1.05141 40 2.34375 40H30.7812C32.0736 40 33.125 38.9486 33.125 37.6562V31.9006C33.125 31.4691 32.7752 31.1194 32.3437 31.1194C31.9123 31.1194 31.5625 31.4691 31.5625 31.9006V37.6562C31.5625 38.087 31.212 38.4375 30.7812 38.4375H2.34375C1.91297 38.4375 1.5625 38.087 1.5625 37.6562V2.34375C1.5625 1.91297 1.91297 1.5625 2.34375 1.5625H30.7812C31.212 1.5625 31.5625 1.91297 31.5625 2.34375V10.8398C31.5625 11.2713 31.9123 11.6211 32.3437 11.6211Z" fill="#9C04FF"/>
<path d="M16.5624 4.21875C12.5992 4.21875 9.375 7.44305 9.375 11.4062C9.375 13.4623 10.2429 15.3191 11.6314 16.6304C11.6574 16.6582 11.6851 16.6845 11.7154 16.7085C12.9943 17.8787 14.6964 18.5937 16.5624 18.5937C18.4284 18.5937 20.1306 17.8787 21.4096 16.7085C21.4398 16.6845 21.4674 16.6581 21.4934 16.6304C22.882 15.3191 23.7499 13.4623 23.7499 11.4062C23.7499 7.44305 20.5256 4.21875 16.5624 4.21875ZM16.5624 17.0312C15.2867 17.0312 14.1095 16.6038 13.1648 15.8853C13.8515 14.6677 15.1327 13.9062 16.5624 13.9062C17.9922 13.9062 19.2735 14.6677 19.9602 15.8853C19.0154 16.6038 17.8381 17.0312 16.5624 17.0312ZM15.3124 11.0938V10.5859C15.3124 9.89672 15.8732 9.33594 16.5624 9.33594C17.2517 9.33594 17.8124 9.89672 17.8124 10.5859V11.0938C17.8124 11.783 17.2517 12.3438 16.5624 12.3438C15.8732 12.3438 15.3124 11.783 15.3124 11.0938ZM21.089 14.7409C20.5128 13.8863 19.7143 13.2217 18.7872 12.8114C19.1552 12.3359 19.3749 11.7402 19.3749 11.0938V10.5859C19.3749 9.03508 18.1133 7.77344 16.5624 7.77344C15.0116 7.77344 13.7499 9.03508 13.7499 10.5859V11.0938C13.7499 11.7402 13.9697 12.3359 14.3377 12.8114C13.4106 13.2217 12.6121 13.8863 12.0359 14.7409C11.3461 13.807 10.9374 12.6537 10.9374 11.4062C10.9374 8.30461 13.4608 5.78125 16.5624 5.78125C19.6641 5.78125 22.1874 8.30461 22.1874 11.4062C22.1874 12.6537 21.7788 13.807 21.089 14.7409Z" fill="#9C04FF"/>
<path d="M20.7812 34.2188H16.5624C16.131 34.2188 15.7812 34.5685 15.7812 35C15.7812 35.4315 16.131 35.7812 16.5624 35.7812H20.7812C21.2126 35.7812 21.5624 35.4315 21.5624 35C21.5624 34.5685 21.2126 34.2188 20.7812 34.2188Z" fill="#9C04FF"/>
<path d="M20.7812 29.8438H9.6875C9.25609 29.8438 8.90625 30.1935 8.90625 30.625C8.90625 31.0565 9.25609 31.4062 9.6875 31.4062H20.7812C21.2126 31.4062 21.5624 31.0565 21.5624 30.625C21.5624 30.1935 21.2126 29.8438 20.7812 29.8438Z" fill="#9C04FF"/>
<path d="M20.7812 25.4688H9.6875C9.25609 25.4688 8.90625 25.8185 8.90625 26.25C8.90625 26.6815 9.25609 27.0312 9.6875 27.0312H20.7812C21.2126 27.0312 21.5624 26.6815 21.5624 26.25C21.5624 25.8185 21.2126 25.4688 20.7812 25.4688Z" fill="#9C04FF"/>
<path d="M6.90265 21.3227C6.75742 21.1773 6.55586 21.0938 6.34961 21.0938C6.14406 21.0938 5.9425 21.1773 5.79726 21.3227C5.65195 21.468 5.56836 21.6695 5.56836 21.875C5.56836 22.0805 5.65187 22.2819 5.79726 22.4272C5.94336 22.5726 6.14406 22.6562 6.34961 22.6562C6.55586 22.6562 6.75664 22.5726 6.90265 22.4272C7.04797 22.2819 7.13164 22.0805 7.13164 21.875C7.13164 21.6695 7.04804 21.468 6.90265 21.3227Z" fill="#9C04FF"/>
<path d="M6.90265 25.6977C6.75664 25.5523 6.55586 25.4688 6.34961 25.4688C6.14406 25.4688 5.94336 25.5523 5.79726 25.6977C5.65195 25.843 5.56836 26.0445 5.56836 26.25C5.56836 26.4555 5.65187 26.6569 5.79726 26.8022C5.94336 26.9476 6.14406 27.0312 6.34961 27.0312C6.55586 27.0312 6.75664 26.9476 6.90265 26.8022C7.04797 26.6569 7.13164 26.4555 7.13164 26.25C7.13164 26.0445 7.04804 25.843 6.90265 25.6977Z" fill="#9C04FF"/>
<path d="M6.90265 30.0727C6.75664 29.9273 6.55586 29.8438 6.34961 29.8438C6.14406 29.8438 5.94336 29.9273 5.79726 30.0727C5.65195 30.218 5.56836 30.4195 5.56836 30.625C5.56836 30.8305 5.65187 31.0319 5.79726 31.1772C5.9425 31.3226 6.14406 31.4062 6.34961 31.4062C6.55586 31.4062 6.75742 31.3226 6.90265 31.1772C7.04797 31.0319 7.13164 30.8305 7.13164 30.625C7.13164 30.4195 7.04804 30.218 6.90265 30.0727Z" fill="#9C04FF"/>
<path d="M20.7812 21.0938H9.6875C9.25609 21.0938 8.90625 21.4435 8.90625 21.875C8.90625 22.3065 9.25609 22.6562 9.6875 22.6562H20.7812C21.2126 22.6562 21.5624 22.3065 21.5624 21.875C21.5624 21.4435 21.2126 21.0938 20.7812 21.0938Z" fill="#9C04FF"/>
<path d="M38.3594 10.1812C37.6004 9.74303 36.7162 9.62663 35.8695 9.85342C35.0229 10.0803 34.3153 10.6233 33.8772 11.3823L24.0458 28.4106C23.9919 28.504 23.9579 28.6075 23.9459 28.7146L23.2539 34.9133C23.2195 35.2218 23.3709 35.5214 23.6397 35.6766C23.761 35.7466 23.8958 35.7813 24.0302 35.7813C24.1937 35.7813 24.3565 35.7301 24.4936 35.6291L29.5158 31.9304C29.6026 31.8665 29.6752 31.7853 29.729 31.6919L39.5604 14.6636C40.4651 13.0967 39.9263 11.0859 38.3594 10.1812ZM25.0048 33.312L25.3662 30.0751L27.6273 31.3806L25.0048 33.312ZM28.7665 30.2341L25.7896 28.5153L33.679 14.8505L36.656 16.5692L28.7665 30.2341ZM38.2072 13.8823L37.4372 15.2161L34.4602 13.4973L35.2303 12.1635C35.4598 11.7659 35.8304 11.4815 36.2739 11.3627C36.7175 11.2438 37.1806 11.3049 37.5781 11.5344C37.9757 11.764 38.2601 12.1346 38.3789 12.578C38.4977 13.0215 38.4368 13.4847 38.2072 13.8823Z" fill="#9C04FF"/>
</svg>
