<svg width="39" height="40" viewBox="0 0 39 40" fill="none" xmlns="http://www.w3.org/2000/svg">
<path d="M34.1946 32.009H31.2109V29.0253C31.2109 28.7017 30.9487 28.4395 30.6251 28.4395C30.3015 28.4395 30.0392 28.7018 30.0392 29.0253V32.009H27.0555C26.7319 32.009 26.4697 32.2713 26.4697 32.5948C26.4697 32.9184 26.7319 33.1807 27.0555 33.1807H30.0392V36.1645C30.0392 36.488 30.3015 36.7503 30.6251 36.7503C30.9487 36.7503 31.2109 36.488 31.2109 36.1645V33.1807H34.1946C34.5182 33.1807 34.7805 32.9184 34.7805 32.5948C34.7805 32.2713 34.5182 32.009 34.1946 32.009Z" fill="#9C04FF"/>
<path d="M30.625 24.9421C29.7864 24.9421 28.9796 25.0801 28.2256 25.3341L24.8378 24.2779L22.5308 23.5586C22.2948 23.4849 22.0457 23.4957 21.8203 23.5798C21.6353 23.4008 21.5243 23.1506 21.5243 22.8872V21.7389C23.642 20.6357 25.2519 18.6876 25.9043 16.3443H26.2253C27.2639 16.3443 28.1089 15.4992 28.1089 14.4605V13.0223C28.1089 12.7473 28.0492 12.486 27.9427 12.2502V9.04594C27.9427 7.71914 27.6619 6.44055 27.108 5.2457C26.972 4.95219 26.6236 4.82445 26.33 4.96047C26.0364 5.09656 25.9088 5.44484 26.0449 5.73844C26.5267 6.77781 26.7709 7.89062 26.7709 9.04594V11.2195C26.7288 11.2068 26.686 11.1957 26.6427 11.1859C26.6401 11.1852 26.6375 11.1846 26.635 11.1841C26.552 11.1655 26.4671 11.1527 26.3803 11.1455C26.3705 11.1447 26.3606 11.1439 26.3507 11.1433C26.3101 11.1406 26.2693 11.1388 26.2281 11.1387C26.2271 11.1387 26.226 11.1386 26.225 11.1386H26.2021C26.1968 11.0605 26.1902 10.9827 26.1829 10.9049L26.1798 10.8706C26.1786 10.8584 26.1769 10.8462 26.1757 10.834C26.1693 10.772 26.1623 10.7101 26.1546 10.6482C26.1522 10.6289 26.1499 10.6098 26.1474 10.5905C26.1378 10.5175 26.1275 10.4447 26.1161 10.3721C26.1154 10.3677 26.1149 10.3631 26.1142 10.3587L26.1133 10.3534C26.0989 10.2625 26.0828 10.1719 26.0655 10.0816L26.0576 10.0402C26.0562 10.0331 26.0546 10.0262 26.0532 10.0191C26.042 9.96305 26.0303 9.90711 26.018 9.85133C26.0169 9.84617 26.0159 9.84094 26.0147 9.83578L26.0053 9.79258C26.0039 9.78641 26.0023 9.78039 26.0009 9.77422C25.9829 9.69594 25.9643 9.61789 25.9442 9.54016C25.9291 9.48211 25.9046 9.42875 25.8743 9.37977C25.8709 9.37422 25.8684 9.36789 25.8648 9.36242C25.8589 9.35344 25.8514 9.34586 25.8449 9.33727C25.7367 9.19266 25.5658 9.10109 25.377 9.10109C25.3746 9.10109 25.3721 9.10109 25.3695 9.10109L25.3483 9.10133C25.2457 9.10266 25.1453 9.13086 25.057 9.1832C24.0448 9.78328 22.7151 10.0875 21.1049 10.0875C20.9015 10.0875 20.6982 10.0795 20.4952 10.0647C20.1029 10.036 19.7113 9.98102 19.321 9.90812C19.3072 9.90555 19.2934 9.90336 19.2796 9.90078C18.5379 9.75977 17.8014 9.55297 17.0743 9.33148C16.8112 9.25133 16.5493 9.16945 16.2889 9.08789C14.1515 8.41797 11.9415 7.72516 9.73497 8.35039C9.55497 8.40141 9.41007 8.53539 9.34517 8.71102C9.34477 8.71219 9.34437 8.71328 9.34397 8.71445C9.31297 8.79852 9.28267 8.88531 9.25177 8.97859C9.24537 8.9975 9.23927 9.01648 9.23307 9.03539C9.23137 9.04078 9.22957 9.04578 9.22777 9.05125L9.21856 9.07969C9.19906 9.14086 9.18007 9.2032 9.16157 9.26625C9.15237 9.2975 9.14357 9.32875 9.13477 9.36008C9.12957 9.37859 9.12407 9.3968 9.11897 9.41547L9.10987 9.44938C9.10617 9.46297 9.10337 9.47633 9.09967 9.48992C9.07797 9.57172 9.0575 9.65375 9.03821 9.73617C9.03352 9.75617 9.02774 9.77633 9.02321 9.79633L9.02024 9.81039C9.01696 9.82508 9.01407 9.83953 9.01086 9.85422C9.00383 9.88633 8.9968 9.91852 8.99016 9.9507C8.97516 10.0227 8.96094 10.094 8.94829 10.1636C8.94758 10.167 8.94696 10.1703 8.94641 10.1737C8.94547 10.1788 8.94469 10.1844 8.94375 10.1896C8.93954 10.2131 8.93586 10.2367 8.93188 10.2602C8.92219 10.3177 8.91282 10.3775 8.90367 10.4391C8.89789 10.478 8.89188 10.5169 8.88664 10.5559L8.88453 10.5708C8.87586 10.6357 8.86805 10.7027 8.86063 10.7707C8.85641 10.8093 8.8525 10.8479 8.84875 10.8866C8.84782 10.8962 8.84672 10.9054 8.84586 10.9149L8.84109 10.968C8.83812 11.0023 8.83593 11.0345 8.83335 11.0675C8.83156 11.0913 8.8289 11.1148 8.82734 11.1386H8.80446C8.80336 11.1386 8.80235 11.1388 8.80125 11.1388C8.76016 11.1388 8.71946 11.1406 8.67899 11.1433C8.66899 11.144 8.65898 11.1448 8.64898 11.1455C8.56249 11.1527 8.47774 11.1655 8.39493 11.184C8.39203 11.1846 8.38914 11.1853 8.38625 11.186C8.34313 11.1959 8.30055 11.2069 8.2586 11.2196V9.04594C8.2586 4.70414 11.7909 1.17188 16.1327 1.17188H18.8965C21.0774 1.17188 23.1057 2.0432 24.6079 3.62547C24.8307 3.86023 25.2016 3.86969 25.4363 3.64695C25.671 3.42414 25.6806 3.05328 25.4578 2.81867C23.7322 1.00094 21.4021 0 18.8968 0H16.1329C11.145 0 7.08703 4.05797 7.08703 9.04586V12.2503C6.98062 12.4861 6.92086 12.7473 6.92086 13.0223V14.4605C6.92086 15.4992 7.76594 16.3443 8.80453 16.3443H9.12547C9.77787 18.6876 11.3878 20.6357 13.5054 21.7389V22.8872C13.5054 23.1506 13.3943 23.4008 13.2093 23.5798C12.984 23.4957 12.7348 23.485 12.4989 23.5585L5.55054 25.7249C4.43265 26.0548 3.42743 26.6166 2.56305 27.3949C2.32258 27.6114 2.30313 27.9819 2.51961 28.2223C2.73618 28.4628 3.10657 28.4822 3.34711 28.2658C4.08149 27.6046 4.93562 27.1275 5.88593 26.8477C5.8889 26.8468 5.89188 26.8459 5.89485 26.845L10.2027 25.5019L14.3182 29.6141C14.5754 29.871 14.9155 30.0009 15.2564 30.0009C15.5675 30.0009 15.8793 29.8927 16.1291 29.6742L17.5148 28.4623L18.9005 29.6742C19.1503 29.8927 19.4621 30.0009 19.7732 30.0009C20.114 30.0009 20.4542 29.8711 20.7113 29.6141L24.8268 25.502L26.6566 26.0725C26.2237 26.3421 25.8228 26.6541 25.4572 27.0009C25.4385 27.0187 25.4199 27.0365 25.4014 27.0544C25.3752 27.0797 25.3489 27.105 25.3232 27.1307C24.0607 28.3841 23.239 30.0807 23.1133 31.9648C23.1125 31.9773 23.1117 31.9898 23.1109 32.0023C23.1071 32.0645 23.104 32.127 23.1017 32.1897C23.101 32.2077 23.1002 32.2257 23.0996 32.2438C23.0974 32.3193 23.0959 32.3951 23.0959 32.4712C23.0959 32.5359 23.0968 32.6004 23.0983 32.6648C23.0984 32.6679 23.0985 32.671 23.0986 32.6741C23.15 34.6334 23.9446 36.4504 25.3001 37.7985H5.56359V32.4712C5.56359 32.1476 5.30133 31.8853 4.97774 31.8853C4.65414 31.8853 4.39187 32.1477 4.39187 32.4712V37.7985H1.24515C1.2046 37.7985 1.17171 37.7655 1.17171 37.725V33.1504C1.17171 32.1598 1.38813 31.2056 1.81493 30.3145C1.95477 30.0227 1.83148 29.6728 1.53968 29.533C1.24781 29.3934 0.897965 29.5165 0.758125 29.8084C0.255075 30.8587 0 31.9832 0 33.1504V37.725C0 38.4116 0.558595 38.9703 1.24524 38.9703H26.8282C27.9435 39.6243 29.2411 40 30.625 40C34.7764 40 38.1539 36.6225 38.1539 32.471C38.1539 28.3195 34.7764 24.9421 30.625 24.9421ZM26.1458 15.1625C26.1696 14.9829 26.1878 14.8016 26.2005 14.6187C26.202 14.5979 26.2032 14.5771 26.2045 14.5564C26.2088 14.4871 26.2122 14.4176 26.215 14.3479C26.2158 14.3245 26.2169 14.3009 26.2176 14.2775C26.2203 14.1891 26.2221 14.1005 26.2221 14.0116V12.3104H26.2252C26.2258 12.3104 26.2264 12.3105 26.2271 12.3105C26.2557 12.3105 26.284 12.3127 26.312 12.3162C26.3194 12.3171 26.3267 12.3184 26.3339 12.3195C26.357 12.3231 26.3797 12.3277 26.4021 12.3335C26.4076 12.3349 26.4132 12.3362 26.4187 12.3378C26.4755 12.354 26.53 12.3771 26.5809 12.4066C26.5838 12.4083 26.5866 12.4101 26.5895 12.4118C26.6128 12.4257 26.6352 12.4409 26.6568 12.4574C26.6592 12.4592 26.6616 12.4609 26.6639 12.4628C26.7107 12.4995 26.753 12.5423 26.7897 12.5903C26.7921 12.5934 26.7945 12.5966 26.7968 12.5998C26.8145 12.6237 26.831 12.6486 26.8458 12.6748C26.846 12.6752 26.8464 12.6756 26.8466 12.6761C26.9039 12.7787 26.937 12.8966 26.937 13.0223V14.4605C26.937 14.853 26.6176 15.1724 26.225 15.1724H26.1446C26.145 15.1691 26.1453 15.1659 26.1458 15.1625ZM8.80453 15.1726C8.41196 15.1725 8.09258 14.8531 8.09258 14.4605V13.0223C8.09258 12.896 8.12602 12.7775 8.18399 12.6745C8.19852 12.6487 8.21485 12.6242 8.23227 12.6007C8.235 12.597 8.23766 12.5934 8.24039 12.5898C8.27688 12.5423 8.31883 12.4998 8.36524 12.4633C8.36797 12.4611 8.37086 12.4591 8.3736 12.457C8.39469 12.4409 8.41672 12.426 8.43946 12.4123C8.44266 12.4104 8.44586 12.4084 8.44914 12.4064C8.49977 12.377 8.55407 12.3541 8.61063 12.338C8.61633 12.3363 8.62211 12.335 8.62782 12.3335C8.65 12.3278 8.67257 12.3233 8.69538 12.3197C8.70281 12.3185 8.71024 12.3172 8.71774 12.3162C8.74563 12.3128 8.77375 12.3106 8.80227 12.3105C8.80305 12.3105 8.80375 12.3105 8.80453 12.3105L8.80766 14.0116C8.80766 14.1007 8.80946 14.1894 8.81211 14.2778C8.81282 14.3011 8.8139 14.3244 8.81476 14.3477C8.81742 14.4175 8.82086 14.4871 8.82524 14.5566C8.82657 14.5773 8.82774 14.598 8.82922 14.6188C8.84188 14.8017 8.86008 14.983 8.88391 15.1627C8.88438 15.1659 8.88461 15.1693 8.88508 15.1726H8.80453ZM10.1422 15.5712C10.1361 15.5425 10.1302 15.5137 10.1245 15.4848C10.1182 15.4529 10.112 15.4209 10.106 15.3888C10.0994 15.3528 10.093 15.3167 10.0869 15.2806C10.0825 15.2543 10.078 15.2279 10.0738 15.2014C10.0671 15.1591 10.0608 15.1166 10.0548 15.0741C10.0518 15.0525 10.0486 15.0309 10.0457 15.0093C10.0395 14.9622 10.0339 14.915 10.0285 14.8678C10.0264 14.8496 10.0242 14.8314 10.0222 14.8131C10.0169 14.763 10.0123 14.7127 10.008 14.6624C10.0066 14.6464 10.005 14.6304 10.0037 14.6143C9.99956 14.5625 9.99627 14.5106 9.99317 14.4588C9.99227 14.4437 9.99106 14.4287 9.99026 14.4135C9.98746 14.3606 9.98557 14.3077 9.98387 14.2547C9.98337 14.2405 9.98257 14.2263 9.98217 14.212C9.98037 14.1452 9.97947 14.0783 9.97947 14.0114V11.7337C9.97957 11.7305 9.97957 11.7273 9.97957 11.7247C9.97957 11.6415 9.98177 11.5585 9.98447 11.4757C9.98527 11.4534 9.98567 11.4321 9.98667 11.4091L9.98697 11.4023C9.99007 11.3284 9.99467 11.2546 9.99997 11.181C10.0022 11.1502 10.0045 11.1192 10.0072 11.087C10.0134 11.014 10.0203 10.941 10.0286 10.8683C10.0318 10.8405 10.0353 10.8139 10.0386 10.7868C10.0462 10.7257 10.0546 10.6648 10.0638 10.604C10.0678 10.5766 10.0718 10.5484 10.076 10.5223C10.0882 10.4459 10.1019 10.3698 10.1165 10.2939C10.1202 10.275 10.1235 10.2565 10.1274 10.2373C10.1431 10.1591 10.1603 10.0813 10.1785 10.0035C10.1836 9.98172 10.1888 9.95992 10.1942 9.93789C10.2121 9.86438 10.2311 9.79102 10.2514 9.71805C10.2728 9.64 10.2964 9.56273 10.3201 9.48625C10.3267 9.46508 10.3325 9.44375 10.3393 9.42266L10.3436 9.40945C10.3442 9.40781 10.3447 9.40617 10.3453 9.40461C10.4565 9.38 10.5682 9.35922 10.68 9.34203C11.9368 9.14875 13.2311 9.40703 14.5725 9.79047C15.0225 9.91906 15.4776 10.0616 15.9385 10.206C17.5906 10.7238 19.2988 11.2592 21.105 11.2592C21.2007 11.2592 21.2957 11.2581 21.3898 11.2562C22.757 11.2274 23.9526 10.99 24.9578 10.5482C24.9595 10.5586 24.9607 10.5692 24.9623 10.5797C24.9738 10.6549 24.9842 10.7303 24.9934 10.8059C24.997 10.8355 25.0002 10.8651 25.0034 10.8947C25.0103 10.9573 25.0164 11.0199 25.0218 11.0827C25.0245 11.1142 25.0271 11.1459 25.0294 11.1781C25.034 11.2417 25.0376 11.3055 25.0407 11.3692C25.0418 11.3923 25.0432 11.4159 25.044 11.4387L25.0447 11.4566C25.0479 11.5455 25.05 11.6346 25.05 11.7238C25.05 11.7242 25.05 11.7246 25.05 11.7249C25.05 11.7268 25.05 11.7291 25.0501 11.7313C25.0501 11.7321 25.0501 11.7328 25.0501 11.7337V14.0114C25.0501 14.0783 25.0492 14.1452 25.0474 14.212C25.047 14.2262 25.0462 14.2404 25.0457 14.2547C25.044 14.3077 25.0421 14.3606 25.0393 14.4135C25.0385 14.4286 25.0373 14.4437 25.0364 14.4588C25.0334 14.5106 25.03 14.5625 25.026 14.6143C25.0247 14.6304 25.0231 14.6463 25.0217 14.6624C25.0173 14.7127 25.0128 14.763 25.0074 14.8131C25.0054 14.8314 25.0032 14.8495 25.0011 14.8678C24.9957 14.915 24.9901 14.9622 24.9839 15.0093C24.981 15.0309 24.9778 15.0525 24.9748 15.0741C24.9688 15.1166 24.9625 15.159 24.9558 15.2014C24.9516 15.2279 24.9471 15.2542 24.9427 15.2806C24.9365 15.3167 24.9302 15.3528 24.9235 15.3888C24.9176 15.4209 24.9114 15.4529 24.9051 15.4848C24.8994 15.5137 24.8935 15.5425 24.8874 15.5712C24.206 18.7956 21.457 21.2663 18.0978 21.5245C18.0877 21.5253 18.0775 21.5259 18.0675 21.5266C18.0145 21.5304 17.9614 21.5339 17.9081 21.5367C17.8818 21.538 17.8553 21.5388 17.8289 21.5399C17.7905 21.5415 17.7522 21.5433 17.7137 21.5443C17.6475 21.546 17.5812 21.547 17.5147 21.547C17.4482 21.547 17.3819 21.546 17.3157 21.5443C17.2772 21.5433 17.2389 21.5415 17.2006 21.5399C17.1742 21.5388 17.1478 21.5381 17.1214 21.5367C17.0681 21.534 17.015 21.5305 16.962 21.5266C16.9518 21.5259 16.9417 21.5253 16.9316 21.5245C13.5726 21.2663 10.8235 18.7956 10.1422 15.5712ZM15.3578 28.7921C15.2966 28.8456 15.2039 28.8425 15.1464 28.7852L11.4663 25.108L12.8105 24.6888L16.6006 27.7052L15.3578 28.7921ZM17.5147 26.9352L14.1692 24.2724C14.4926 23.8943 14.6772 23.4079 14.6772 22.8872V22.2457C14.8279 22.2978 14.9801 22.344 15.1331 22.3875C15.1344 22.3879 15.1357 22.3882 15.1371 22.3886C15.2647 22.4248 15.3932 22.458 15.5224 22.4883C15.5404 22.4925 15.5585 22.4967 15.5766 22.5009C15.6889 22.5264 15.8018 22.5497 15.915 22.5707C15.9386 22.5751 15.9621 22.5798 15.9858 22.5841C16.0438 22.5943 16.1019 22.6039 16.1601 22.613C16.2124 22.6213 16.2649 22.6287 16.3174 22.6359C16.3839 22.6451 16.4505 22.6536 16.5174 22.6612C16.5832 22.6687 16.6493 22.6755 16.7157 22.6816C16.7513 22.6848 16.7869 22.6884 16.8226 22.6912C16.9197 22.6988 17.0174 22.7047 17.1153 22.7091C17.1415 22.7103 17.1678 22.7112 17.194 22.7121C17.3005 22.716 17.4073 22.7187 17.5148 22.7187C17.6223 22.7187 17.729 22.716 17.8356 22.7121C17.8618 22.7112 17.8881 22.7103 17.9143 22.7091C18.0122 22.7047 18.1099 22.6988 18.207 22.6912C18.2427 22.6884 18.2783 22.6848 18.3139 22.6816C18.3803 22.6755 18.4464 22.6687 18.5122 22.6612C18.5791 22.6536 18.6457 22.6451 18.7122 22.6359C18.7648 22.6287 18.8173 22.6213 18.8695 22.613C18.9277 22.604 18.9858 22.5944 19.0438 22.5841C19.0675 22.5798 19.091 22.5752 19.1146 22.5707C19.2279 22.5497 19.3407 22.5264 19.453 22.5009C19.4711 22.4967 19.4892 22.4925 19.5072 22.4883C19.6364 22.458 19.7649 22.4248 19.8925 22.3886C19.8939 22.3882 19.8952 22.3879 19.8965 22.3875C20.0494 22.344 20.2017 22.2977 20.3524 22.2457V22.8872C20.3524 23.4079 20.537 23.8943 20.8603 24.2724L17.5147 26.9352ZM19.8831 28.7852C19.8257 28.8423 19.733 28.8455 19.672 28.7921L18.4291 27.7051L20.7722 25.8402L22.1639 24.7327L22.2191 24.6887L23.5634 25.1079L19.8831 28.7852ZM30.625 38.8282C27.2375 38.8282 24.4609 36.1648 24.2779 32.8222C24.2769 32.8037 24.2761 32.7851 24.2753 32.7666C24.2707 32.6686 24.2678 32.5702 24.2678 32.4711C24.2678 32.3737 24.2708 32.277 24.2751 32.1807C24.2768 32.1452 24.2792 32.1097 24.2814 32.0742C24.285 32.0156 24.2896 31.9573 24.2948 31.8991C24.2989 31.854 24.303 31.8088 24.3081 31.7639C24.3127 31.7225 24.3184 31.6815 24.3238 31.6404C24.4876 30.4076 25.0105 29.263 25.8005 28.3382C25.8291 28.3048 25.8576 28.2712 25.8869 28.2385C25.9125 28.2098 25.9388 28.1814 25.9649 28.1531C26.0097 28.1048 26.0551 28.0569 26.1014 28.0099C26.1169 27.9942 26.1322 27.9784 26.1478 27.9627C27.2977 26.8208 28.8802 26.1139 30.625 26.1139C34.1303 26.1139 36.9821 28.9657 36.9821 32.4711C36.9821 35.9765 34.1303 38.8282 30.625 38.8282Z" fill="#9C04FF"/>
</svg>
